<?xml version="1.0" encoding="utf-8"?>
<!-- Generator: Adobe Illustrator 21.1.0, SVG Export Plug-In . SVG Version: 6.00 Build 0)  -->
<svg version="1.1" id="Calque_1" xmlns="http://www.w3.org/2000/svg" xmlns:xlink="http://www.w3.org/1999/xlink" x="0px" y="0px"
	 viewBox="0 0 24 24" style="enable-background:new 0 0 24 24;" xml:space="preserve">
<style type="text/css">
	.st0{fill:#FFFFFF;}
	.st1{fill:#5A5A5A;}
	.st2{fill:none;}
</style>
<g>
	<g>
		<g>
			<path class="st0" d="M136.7,25.3"/>
		</g>
	</g>
</g>
<g>
	<path class="st1" d="M12,1.5C6.2,1.5,1.5,6.2,1.5,12S6.2,22.5,12,22.5c1.5,0,3-0.3,4.3-0.9l0,0l0,0c0.6-0.3,0.8-0.9,0.5-1.5
		s-0.9-0.8-1.5-0.5c-1,0.4-2.2,0.5-3.3,0.5c-4.5,0-8-3.5-8-8s3.5-8,8-8s8,3.5,8,8c0,0.8-0.2,2.4-1,3c-0.6,0.4-1.4,0.5-2.2,0.3
		c-0.9-0.2-1.5-1.1-1.2-2.7l0.5-3.9c0.1-0.6-0.3-1.2-0.9-1.4C14.6,7.1,14,7,12.9,7c-3.8-0.1-6.1,3.2-6,6.4c0.1,2.1,1.5,3.2,3.2,3.3
		c1.4,0.1,2.6-0.6,3.4-2c0.2,1.4,1.4,2.4,2.8,2.8c1.3,0.4,2.4,0.2,3.1,0c1.4-0.4,3-2,3-5.5C22.5,6.2,17.8,1.5,12,1.5z M13.1,11.8
		c-0.5,1.2-1.3,2.5-2.2,2.5C10,14.3,9.6,14,9.6,13c-0.1-2,1.3-3.7,3.1-3.8c0.2,0,0.4,0,0.6,0c0.1,0,0.4,0.1,0.4,0.3
		C13.6,9.8,13.5,10.6,13.1,11.8z"/>
	<g>
		<g>
			<rect class="st2" width="24" height="24"/>
		</g>
	</g>
</g>
</svg>
