<?xml version="1.0" encoding="utf-8"?>
<!-- Generator: Adobe Illustrator 21.1.0, SVG Export Plug-In . SVG Version: 6.00 Build 0)  -->
<svg version="1.1" id="Calque_1" xmlns="http://www.w3.org/2000/svg" xmlns:xlink="http://www.w3.org/1999/xlink" x="0px" y="0px"
	 viewBox="0 0 24 24" style="enable-background:new 0 0 24 24;" xml:space="preserve">
<style type="text/css">
	.st0{fill:#FFFFFF;}
	.st1{fill:#5A5A5A;}
	.st2{fill:none;}
</style>
<g>
	<g>
		<g>
			<path class="st0" d="M136.7,25.3"/>
		</g>
	</g>
</g>
<g>
	<g>
		<g>
			<path class="st1" d="M11.6,11.8c0.2,0.1,0.3,0.2,0.4,0.2s0.2,0,0.4-0.2l9.4-6.6C22,5,22,4.8,21.8,4.6c-0.1-0.1-0.2-0.1-0.3-0.1
				l0,0H12H2.4l0,0c-0.1,0-0.2,0-0.3,0.1C2,4.8,2,5.1,2.1,5.2L11.6,11.8z"/>
			<path class="st1" d="M21.6,8.7l-9.2,6.4l0,0c-0.2,0.1-0.3,0.2-0.4,0.2s-0.2,0-0.4-0.2l0,0L2.4,8.7C2.2,8.6,2,8.6,2,9v9.8
				c0,0.4,0.3,0.7,0.7,0.7h18.6c0.4,0,0.7-0.3,0.7-0.7V9C22,8.6,21.8,8.6,21.6,8.7z"/>
		</g>
	</g>
	<g>
		<rect class="st2" width="24" height="24"/>
	</g>
</g>
</svg>
