<?xml version="1.0" encoding="utf-8"?>
<!-- Generator: Adobe Illustrator 21.1.0, SVG Export Plug-In . SVG Version: 6.00 Build 0)  -->
<svg version="1.1" id="Calque_1" xmlns="http://www.w3.org/2000/svg" xmlns:xlink="http://www.w3.org/1999/xlink" x="0px" y="0px"
	 viewBox="0 0 24 24" style="enable-background:new 0 0 24 24;" xml:space="preserve">
<style type="text/css">
	.st0{fill:#FFFFFF;}
	.st1{fill:#5A5A5A;}
	.st2{fill:none;}
</style>
<g>
	<g>
		<g>
			<path class="st0" d="M136.7,25.3"/>
		</g>
	</g>
</g>
<g>
	<path class="st1" d="M23.5,9.3c-0.1-0.2-0.3-0.4-0.5-0.4l-7.8-0.2l-2.6-7.4c-0.2-0.5-0.9-0.5-1.1,0L8.9,8.8L1.1,8.9
		c-0.2,0-0.5,0.2-0.5,0.4c-0.1,0.2,0,0.5,0.2,0.6L7,14.7l-2.3,7.5c-0.1,0.2,0,0.5,0.2,0.6c0.2,0.1,0.5,0.1,0.7,0l6.4-4.5l6.4,4.5
		c0.1,0.1,0.2,0.1,0.3,0.1c0.1,0,0.2,0,0.3-0.1c0.2-0.1,0.3-0.4,0.2-0.6L17,14.7l6.2-4.8C23.5,9.8,23.5,9.6,23.5,9.3z"/>
	<rect class="st2" width="24" height="24"/>
</g>
</svg>
