<?xml version="1.0" encoding="utf-8"?>
<!-- Generator: Adobe Illustrator 21.0.2, SVG Export Plug-In . SVG Version: 6.00 Build 0)  -->
<svg version="1.1" xmlns="http://www.w3.org/2000/svg" xmlns:xlink="http://www.w3.org/1999/xlink" x="0px" y="0px"
	 viewBox="0 0 480 240" style="enable-background:new 0 0 480 240;" xml:space="preserve">
<style type="text/css">
	.st0{display:none;}
	.st1{display:inline;}
	.st2{fill:#828282;}
	.st3{fill:#FFFFFF;}
	.st4{fill:none;}
	.st5{fill:#5A5A5A;}
</style>
<g id="fond" class="st0">
	<g class="st1">
		<circle class="st2" cx="270" cy="30" r="30"/>
		<circle class="st2" cx="210" cy="30" r="30"/>
		<circle class="st2" cx="330" cy="30" r="30"/>
		<circle class="st2" cx="30" cy="30" r="30"/>
		<circle class="st3" cx="30" cy="90" r="30"/>
		<circle class="st3" cx="90" cy="90" r="30"/>
		<circle class="st3" cx="30" cy="210" r="30"/>
		<circle class="st3" cx="90" cy="210" r="30"/>
		<circle class="st2" cx="390" cy="30" r="30"/>
		<circle class="st2" cx="150" cy="30" r="30"/>
		<circle class="st2" cx="150" cy="90" r="30"/>
		<circle class="st2" cx="30" cy="150" r="30"/>
		<circle class="st2" cx="90" cy="150" r="30"/>
		<circle class="st2" cx="150" cy="150" r="30"/>
		<circle class="st2" cx="150" cy="210" r="30"/>
		<circle class="st2" cx="210" cy="210" r="30"/>
		<circle class="st2" cx="270" cy="210" r="30"/>
		<circle class="st2" cx="330" cy="210" r="30"/>
		<circle class="st2" cx="210" cy="150" r="30"/>
		<circle class="st2" cx="270" cy="150" r="30"/>
		<circle class="st2" cx="330" cy="150" r="30"/>
		<circle class="st2" cx="390" cy="150" r="30"/>
		<circle class="st2" cx="450" cy="150" r="30"/>
		<circle class="st2" cx="210" cy="90" r="30"/>
		<circle class="st2" cx="90" cy="30" r="30"/>
		<circle class="st2" cx="330" cy="90" r="30"/>
		<circle class="st2" cx="270" cy="90" r="30"/>
		<circle class="st2" cx="390" cy="90" r="30"/>
		<circle class="st2" cx="450" cy="90" r="30"/>
		<circle class="st2" cx="450" cy="30" r="30"/>
	</g>
	<g class="st1">
		<g>
			<path class="st2" d="M390.4,180c-16.6-0.2-30.2,13-30.4,29.6c-0.2,16.6,13,30.2,29.6,30.4c16.6,0.2,30.2-13,30.4-29.6
				C420.2,193.8,407,180.2,390.4,180z"/>
		</g>
	</g>
</g>
<g id="png">
	<g>
		<circle class="st4" cx="30" cy="30" r="30"/>
		<g>
			<g>
				<g>
					<path class="st3" d="M39.2,23H20.9c-0.8,0-1.5-0.7-1.5-1.5c0-0.8,0.7-1.5,1.5-1.5h18.3c0.8,0,1.5,0.7,1.5,1.5
						C40.7,22.3,40,23,39.2,23z"/>
				</g>
				<g>
					<path class="st3" d="M39.2,31.5H20.9c-0.8,0-1.5-0.7-1.5-1.5c0-0.8,0.7-1.5,1.5-1.5h18.3c0.8,0,1.5,0.7,1.5,1.5
						C40.7,30.8,40,31.5,39.2,31.5z"/>
				</g>
				<g>
					<path class="st3" d="M39.2,40H20.9c-0.8,0-1.5-0.7-1.5-1.5c0-0.8,0.7-1.5,1.5-1.5h18.3c0.8,0,1.5,0.7,1.5,1.5
						C40.7,39.3,40,40,39.2,40z"/>
				</g>
			</g>
		</g>
	</g>
	<g>
		<circle class="st4" cx="90" cy="90" r="30"/>
		<g>
			<path class="st5" d="M100,88.9L87,77.4c-0.4-0.4-1.1-0.5-1.6-0.2c-0.5,0.2-0.9,0.8-0.9,1.4v23c0,0.6,0.3,1.1,0.9,1.4
				c0.2,0.1,0.4,0.1,0.6,0.1c0.4,0,0.7-0.1,1-0.4l13-11.5c0.3-0.3,0.5-0.7,0.5-1.1C100.5,89.6,100.3,89.2,100,88.9z"/>
		</g>
	</g>
	<g>
		<circle class="st4" cx="150" cy="90" r="30"/>
		<g>
			<g>
				<g>
					<path class="st3" d="M146.4,93.6L146.4,93.6l2.5,2.5c0.3,0.3,0.6,0.4,1.1,0.4s0.8-0.2,1.1-0.4l2.5-2.5l0,0l7-7
						c0.3-0.3,0.4-0.7,0.4-1.1c0-0.4-0.1-0.8-0.4-1.1c-0.6-0.6-1.5-0.6-2.1,0l-1,1l-5.9,5.9V75.5c0-0.8-0.7-1.5-1.5-1.5
						s-1.5,0.7-1.5,1.5v15.9l-6.9-6.9c-0.6-0.6-1.5-0.6-2.1,0c-0.3,0.3-0.4,0.7-0.4,1.1c0,0.4,0.1,0.8,0.4,1.1L146.4,93.6z"/>
					<path class="st3" d="M160.4,100.5h-20.8c-0.8,0-1.5,0.7-1.5,1.5c0,0.8,0.7,1.5,1.5,1.5h20.8c0.8,0,1.5-0.7,1.5-1.5
						C161.9,101.2,161.2,100.5,160.4,100.5z"/>
				</g>
			</g>
		</g>
	</g>
	<g>
		<circle class="st4" cx="270" cy="90" r="30"/>
		<g>
			<path class="st3" d="M277.3,91.1h-5.7V105h-5.3V91.1h-3.7v-5.3h3.7c0,0,0-2.1,0-4.3c0-3.4,2.4-6.4,7.4-6.4c2,0,3.6,0.2,3.6,0.2
				l0,4.7c0,0-1.7,0-3.4,0c-1.8,0-2.3,0.8-2.3,2.2c0,0.2,0,0.2,0,0.2c0,0.4,0,1.4,0,3.5h5.9L277.3,91.1z"/>
		</g>
	</g>
	<g>
		<circle class="st4" cx="390" cy="90" r="30"/>
		<g>
			<g>
				<path class="st3" d="M403.1,80.3l-0.9-0.9c-1.2-1.2-2.9-1.9-4.8-1.9c-1.4,0-2.7,0.4-3.8,1.1c-0.7,0.4-1.1,0.8-1.1,0.8
					c-0.3,0.2-0.6,0.5-0.7,0.9c-0.1,0.4,0,0.8,0.2,1.1c0.3,0.4,0.7,0.7,1.2,0.7c0.3,0,0.5-0.1,0.7-0.2c1.1-0.8,1.8-1.2,3-1.2
					c0.2,0,0.5,0,0.7,0c0.9,0.1,1.7,0.7,2.1,1.1l0.9,0.9c0.6,0.6,0.9,1.4,0.9,2.3c0,1-0.4,2-1.2,2.7l-4,4c-0.7,0.7-1.9,1.1-3.1,1.1
					c-1.2,0-2.2-0.3-2.8-0.9c-0.3-0.3-1-0.7-1.5-0.7c-0.5,0-0.9,0.2-1.2,0.5c-0.8,0.8-0.7,1.7,0.3,2.6c1.2,1.2,3.8,2,5.6,2
					c1.9,0,3.7-0.8,5.1-2.1l4-4C405.6,87.4,405.7,83,403.1,80.3z"/>
				<path class="st3" d="M391.9,85.7c-1.2-1.2-3.8-2-5.6-2c-1.9,0-3.7,0.8-5.1,2.1l-4,4c-2.8,2.8-2.9,7.2-0.2,9.8l0.9,0.9
					c1.2,1.2,2.9,1.9,4.8,1.9c1.4,0,2.7-0.4,3.8-1.1c0.7-0.5,1.1-0.8,1.1-0.8c0.4-0.2,0.6-0.5,0.7-0.9c0.1-0.4,0-0.8-0.2-1.1
					c-0.3-0.4-0.7-0.7-1.2-0.7c-0.3,0-0.5,0.1-0.8,0.2c-1.1,0.8-1.8,1.2-3,1.2c-0.2,0-0.5,0-0.7,0c-0.9-0.1-1.7-0.7-2.1-1.1
					l-0.9-0.9c-0.6-0.6-0.9-1.4-0.9-2.3c0-1,0.4-2,1.2-2.7l4-4c0.7-0.7,1.9-1.1,3.1-1.1c1.2,0,2.2,0.4,2.8,0.9
					c0.3,0.3,1,0.7,1.5,0.7c0.5,0,0.9-0.2,1.2-0.5C392.9,87.5,392.8,86.7,391.9,85.7z"/>
			</g>
		</g>
	</g>
	<g>
		<circle class="st4" cx="150" cy="30" r="30"/>
		<g>
			<g>
				<g>
					<path class="st3" d="M155.5,42.8"/>
				</g>
				<path class="st3" d="M160.5,20.8c-0.4-0.5-0.9-0.5-1.4-0.2l-0.9,0.6c-0.4,0.3-0.6,0.9-0.1,1.4c2.2,2.4,3.3,5.7,2.7,9.1
					c-0.3,1.9-1.1,3.7-2.3,5.2l0,0l0,0h0c-2,2.5-5.1,4.1-8.6,4.1c-2.6,0-5-0.9-6.9-2.4c-2.5-2-4.1-5.1-4.1-8.6c0-4.2,2.4-8,6.1-9.9
					l1.3,2.6c0.1,0.3,0.4,0.5,0.7,0.5c0.3,0.1,0.6,0,0.9-0.3l5.2-5c0.2-0.2,0.3-0.5,0.3-0.7c0-0.1,0-0.2,0-0.2
					c-0.1-0.3-0.4-0.6-0.7-0.7l-8.9-2.5c-0.4-0.1-0.8,0-1,0.3c-0.3,0.3-0.3,0.7-0.1,1.1l1.1,2.3c-4.7,2.3-7.8,7.2-7.8,12.5
					c0,2.2,0.5,4.3,1.5,6.2l0,0c0.2,0.4,0.4,0.7,0.6,1.1c0,0.1,0.1,0.2,0.1,0.2c0.2,0.4,0.5,0.7,0.8,1.1c0,0,0,0,0,0
					c0.3,0.4,0.6,0.7,0.9,1c0,0,0.1,0.1,0.1,0.1c2.6,2.6,6.1,4.2,9.9,4.2c1.5,0,2.8-0.2,4.2-0.6l0,0c0.2-0.1,0.3-0.1,0.5-0.2
					c0.1,0,0.1,0,0.2-0.1c0.5-0.2,0.9-0.4,1.4-0.6l0,0l0,0c0,0,0,0,0,0c4-2,6.9-5.8,7.6-10.3C164.5,27.9,163.1,23.7,160.5,20.8z"/>
			</g>
		</g>
	</g>
	<g>
		<circle class="st4" cx="210" cy="30" r="30"/>
		<g>
			<g>
				<g>
					<path class="st3" d="M215.5,42.8"/>
				</g>
			</g>
		</g>
		<g>
			<g>
				<g>
					<path class="st3" d="M225.9,22.8c-0.3-0.3-0.7-0.3-1.1-0.1l-2.3,1.1c-2.3-4.7-7.2-7.8-12.5-7.8c-4.3,0-8.3,2-10.8,5.1
						c-0.4,0.5-0.3,1,0,1.4l0.7,0.8c0.3,0.3,1,0.5,1.4-0.1c2-2.5,5.1-4.1,8.6-4.1c4.2,0,8,2.4,9.9,6.1l-2.6,1.3
						c-0.3,0.1-0.5,0.4-0.5,0.7c-0.1,0.3,0,0.6,0.3,0.9l5,5.2c0.2,0.2,0.5,0.3,0.7,0.3c0.1,0,0.2,0,0.2,0c0.3-0.1,0.6-0.4,0.7-0.7
						l2.5-8.9C226.3,23.5,226.2,23.1,225.9,22.8z"/>
					<path class="st3" d="M220,36.8c-0.3-0.3-1-0.5-1.4,0.1c-2,2.5-5.1,4.1-8.6,4.1c-4.2,0-8-2.4-9.9-6.1l2.6-1.3
						c0.3-0.1,0.5-0.4,0.5-0.7c0.1-0.3,0-0.6-0.3-0.9l-5-5.2c-0.2-0.2-0.5-0.3-0.7-0.3c-0.1,0-0.2,0-0.2,0c-0.3,0.1-0.6,0.4-0.7,0.7
						l-2.5,8.9c-0.1,0.4,0,0.8,0.3,1c0.3,0.3,0.7,0.3,1.1,0.1l2.3-1.1c2.3,4.7,7.2,7.8,12.5,7.8c4.3,0,8.3-2,10.8-5.1
						c0.4-0.5,0.3-1,0-1.4L220,36.8z"/>
				</g>
			</g>
		</g>
	</g>
	<g>
		<circle class="st4" cx="90" cy="30" r="30"/>
		<path class="st3" d="M92.8,38.2L84.6,30l0,0h0l8.2-8.2l2.5-2.5c0.6-0.6,0.6-1.5,0-2.1c-0.6-0.6-1.5-0.6-2.1,0L81.4,28.9
			C81.2,29.2,81,29.6,81,30h0l0,0c0,0.4,0.2,0.8,0.4,1.1l11.7,11.7c0.6,0.6,1.5,0.6,2.1,0c0.6-0.6,0.6-1.5,0-2.1L92.8,38.2z"/>
	</g>
	<g>
		<circle class="st4" cx="30" cy="210" r="30"/>
		<path class="st2" d="M32.8,218.2l-8.2-8.2h0h0l8.2-8.2l2.5-2.5c0.6-0.6,0.6-1.5,0-2.1c-0.6-0.6-1.5-0.6-2.1,0l-11.7,11.7
			c-0.3,0.3-0.4,0.6-0.4,1.1h0h0c0,0.4,0.2,0.8,0.4,1.1l11.7,11.7c0.6,0.6,1.5,0.6,2.1,0c0.6-0.6,0.6-1.5,0-2.1L32.8,218.2z"/>
	</g>
	<g>
		<circle class="st4" cx="90" cy="150" r="30"/>
		<path class="st3" d="M87.2,141.8l8.2,8.2h0h0l-8.2,8.2l-2.5,2.5c-0.6,0.6-0.6,1.5,0,2.1c0.6,0.6,1.5,0.6,2.1,0l11.7-11.7
			c0.3-0.3,0.4-0.6,0.4-1.1h0h0c0-0.4-0.2-0.8-0.4-1.1l-11.7-11.7c-0.6-0.6-1.5-0.6-2.1,0c-0.6,0.6-0.6,1.5,0,2.1L87.2,141.8z"/>
	</g>
	<g>
		<circle class="st4" cx="270" cy="30" r="30"/>
		<g>
			<g>
				<g>
					<path class="st3" d="M275.5,42.8"/>
				</g>
			</g>
		</g>
		<g>
			<g>
				<g>
					<path class="st3" d="M270,19c6.1,0,11,4.9,11,11s-4.9,11-11,11s-11-4.9-11-11S263.9,19,270,19 M270,16c-7.7,0-14,6.3-14,14
						c0,7.7,6.3,14,14,14s14-6.3,14-14C284,22.3,277.7,16,270,16L270,16z"/>
				</g>
				<path class="st3" d="M270,19c6.1,0,11,4.9,11,11c0,6.1-4.9,11-11,11s-11-4.9-11-11C259,23.9,263.9,19,270,19 M270,16
					c-7.7,0-14,6.3-14,14c0,7.7,6.3,14,14,14s14-6.3,14-14C284,22.3,277.7,16,270,16L270,16z"/>
				<g>
					<path class="st3" d="M270,27c-1.7,0-3,1.3-3,3s1.3,3,3,3c1.7,0,3-1.3,3-3S271.7,27,270,27L270,27z"/>
				</g>
			</g>
		</g>
	</g>
	<g>
		<circle class="st4" cx="330" cy="30" r="30"/>
		<g>
			<g>
				<g>
					<path class="st3" d="M335.5,42.8"/>
				</g>
			</g>
		</g>
		<g>
			<g>
				<path class="st3" d="M343.6,28.5l-12.6-12.6c-0.6-0.6-1.6-0.6-2.1,0l-12.6,12.6c-0.6,0.6-0.6,1.5,0,2.1c0.6,0.6,1.5,0.6,2.1,0
					l2.5-2.5v13.4c0,0.8,0.7,1.5,1.5,1.5h4c0.6,0,1-0.4,1-1v-6.5c0-1.4,1.1-2.5,2.5-2.5s2.5,1.1,2.5,2.5V42c0,0.6,0.4,1,1,1h4
					c0.8,0,1.5-0.7,1.5-1.5V28.1l2.5,2.5c0.3,0.3,0.7,0.4,1.1,0.4c0.4,0,0.8-0.1,1.1-0.4C344.2,30,344.2,29.1,343.6,28.5z"/>
			</g>
		</g>
	</g>
	<g>
		<circle class="st4" cx="390" cy="30" r="30"/>
		<path class="st3" d="M404.9,29.5c-3.5-6.2-9-9.8-14.9-9.8c-5.8,0-11.4,3.7-14.9,9.8c-0.2,0.3-0.2,0.7,0,1c3.5,6.2,9,9.8,14.9,9.8
			s11.4-3.7,14.9-9.8C405,30.2,405,29.8,404.9,29.5z M390,34.9c-2.7,0-4.9-2.2-4.9-4.9s2.2-4.9,4.9-4.9c2.7,0,4.9,2.2,4.9,4.9
			S392.7,34.9,390,34.9z"/>
	</g>
	<g>
		<circle class="st4" cx="450" cy="30" r="30"/>
		<g>
			<path class="st3" d="M452.1,30l7.8-7.8c0.6-0.6,0.6-1.5,0-2.1c-0.6-0.6-1.5-0.6-2.1,0l-7.8,7.8l-7.8-7.8c-0.6-0.6-1.5-0.6-2.1,0
				c-0.6,0.6-0.6,1.5,0,2.1l7.8,7.8l-7.8,7.8c-0.6,0.6-0.6,1.5,0,2.1c0.3,0.3,0.7,0.4,1.1,0.4c0.4,0,0.8-0.1,1.1-0.4l7.8-7.8
				l7.8,7.8c0.3,0.3,0.7,0.4,1.1,0.4c0.4,0,0.8-0.1,1.1-0.4c0.6-0.6,0.6-1.5,0-2.1L452.1,30z"/>
		</g>
	</g>
	<g>
		<circle class="st4" cx="30" cy="90" r="30"/>
		<g>
			<g>
				<path class="st5" d="M27,100.5c0,0.8-0.7,1.5-1.5,1.5h-3c-0.8,0-1.5-0.7-1.5-1.5v-21c0-0.8,0.7-1.5,1.5-1.5h3
					c0.8,0,1.5,0.7,1.5,1.5V100.5z"/>
				<path class="st5" d="M39,100.5c0,0.8-0.7,1.5-1.5,1.5h-3c-0.8,0-1.5-0.7-1.5-1.5v-21c0-0.8,0.7-1.5,1.5-1.5h3
					c0.8,0,1.5,0.7,1.5,1.5V100.5z"/>
			</g>
		</g>
	</g>
	<g>
		<circle class="st4" cx="210" cy="90" r="30"/>
		<g>
			<g>
				<path class="st3" d="M209.4,89.7c0.3,0.2,0.4,0.2,0.6,0.2s0.3-0.1,0.6-0.2l12.7-8.8c0.2-0.2,0.2-0.6,0-0.8
					c-0.1-0.1-0.3-0.2-0.4-0.2h0H210h-12.9h0c-0.1,0-0.3,0.1-0.4,0.2c-0.2,0.2-0.2,0.6,0,0.8L209.4,89.7z"/>
				<path class="st3" d="M222.9,85.6l-12.3,8.6l0,0c-0.3,0.2-0.4,0.2-0.6,0.2s-0.3-0.1-0.6-0.2l0,0l-12.3-8.6
					c-0.3-0.2-0.5-0.1-0.5,0.3l0,13.2c0,0.5,0.4,1,1,1h25c0.5,0,1-0.4,1-1V85.9C223.5,85.5,223.2,85.4,222.9,85.6z"/>
			</g>
		</g>
	</g>
	<g>
		<circle class="st4" cx="330" cy="90" r="30"/>
		<g>
			<path class="st3" d="M341.9,83.9c0,0.3,0,0.5,0,0.8c0,8.1-6.2,17.5-17.5,17.5c-3.5,0-6.7-1-9.4-2.8c0.5,0.1,1,0.1,1.5,0.1
				c2.9,0,5.5-1,7.6-2.6c-2.7,0-5-1.8-5.8-4.3c0.4,0.1,0.8,0.1,1.2,0.1c0.6,0,1.1-0.1,1.6-0.2c-2.8-0.6-5-3.1-5-6c0,0,0-0.1,0-0.1
				c0.6,0.5,1.8,0.7,2.8,0.8c-1.7-1.1-2.7-3-2.7-5.1c0-1.1,0.3-2.2,0.8-3.1c3,3.7,7.6,6.2,12.7,6.4c-0.1-0.5-0.2-0.9-0.2-1.4
				c0-3.4,2.8-6.2,6.2-6.2c1.8,0,3.4,0.7,4.5,1.9c1.4-0.3,2.7-0.8,3.9-1.5c-0.5,1.4-1.4,2.6-2.7,3.4c1.2-0.2,2.4-0.5,3.5-1
				C344.2,81.9,343.1,83,341.9,83.9z"/>
		</g>
	</g>
	<g>
		<circle class="st4" cx="30" cy="150" r="30"/>
		<g>
			<g>
				<circle class="st3" cx="19" cy="150" r="3"/>
				<circle class="st3" cx="30" cy="150" r="3"/>
				<circle class="st3" cx="41" cy="150" r="3"/>
			</g>
		</g>
	</g>
	<g>
		<circle class="st4" cx="90" cy="210" r="30"/>
		<path class="st2" d="M87.2,201.8l8.2,8.2h0h0l-8.2,8.2l-2.5,2.5c-0.6,0.6-0.6,1.5,0,2.1c0.6,0.6,1.5,0.6,2.1,0l11.7-11.7
			c0.3-0.3,0.4-0.6,0.4-1.1h0h0c0-0.4-0.2-0.8-0.4-1.1l-11.7-11.7c-0.6-0.6-1.5-0.6-2.1,0c-0.6,0.6-0.6,1.5,0,2.1L87.2,201.8z"/>
	</g>
	<g>
		<circle class="st4" cx="150" cy="150" r="30"/>
		<g>
			<path class="st3" d="M158.2,154.7c-1.3,0-2.6,0.6-3.4,1.5l-10.5-4.9c0.1-0.4,0.2-0.8,0.2-1.3s-0.1-0.9-0.2-1.3l10.5-4.9
				c0.9,0.9,2.1,1.5,3.4,1.5c2.6,0,4.7-2.1,4.7-4.7s-2.1-4.7-4.7-4.7c-2.6,0-4.7,2.1-4.7,4.7c0,0.2,0,0.4,0,0.6l-10.9,5.1
				c-0.8-0.6-1.8-1-2.8-1c-2.6,0-4.7,2.1-4.7,4.7c0,2.6,2.1,4.7,4.7,4.7c1.1,0,2-0.4,2.8-1l10.9,5.1c0,0.2,0,0.4,0,0.6
				c0,2.6,2.1,4.7,4.7,4.7c2.6,0,4.7-2.1,4.7-4.7C162.8,156.8,160.8,154.7,158.2,154.7z"/>
		</g>
	</g>
	<g>
		<circle class="st4" cx="210" cy="150" r="30"/>
		<g>
			<path class="st3" d="M219.1,138.5h-5.5V137c0-0.8-0.7-1.5-1.5-1.5h-4.3c-0.8,0-1.5,0.7-1.5,1.5v1.5h-5.5c-0.8,0-1.5,0.7-1.5,1.5
				s0.7,1.5,1.5,1.5h18.3c0.8,0,1.5-0.7,1.5-1.5S220,138.5,219.1,138.5z"/>
			<path class="st3" d="M218.9,145.5h-17.8c-0.4,0-0.7,0.3-0.7,0.7l1.9,16c0.1,0.8,0.7,1.3,1.5,1.3h12.3c0.8,0,1.4-0.6,1.5-1.3
				l1.9-16C219.5,145.8,219.2,145.5,218.9,145.5z"/>
		</g>
	</g>
	<g>
		<circle class="st4" cx="270" cy="150" r="30"/>
		<g>
			<path class="st3" d="M285.6,143.5c-0.4-2.6-1.6-4.3-3.7-4.6c-2.1-0.3-6.4-0.9-11.9-0.9c0,0,0,0,0,0c0,0,0,0,0,0
				c-5.5,0-9.8,0.6-11.9,0.9c-2.1,0.3-3.3,1.8-3.7,4.4c-0.4,2.8-0.4,4.9-0.4,6.7c0,1.8,0,3.9,0.4,6.7c0.4,2.6,1.6,4.3,3.7,4.6
				c2.1,0.3,6.4,0.8,11.9,0.8c0,0,0,0,0,0c0,0,0,0,0,0c5.5,0,9.8-0.5,11.9-0.8c2.1-0.3,3.3-1.8,3.7-4.3c0.4-2.8,0.4-4.9,0.4-6.7
				C286,148.4,286,146.2,285.6,143.5z M264,157.3v-14.5l13.8,7.3L264,157.3z"/>
		</g>
	</g>
	<g>
		<circle class="st4" cx="390" cy="150" r="30"/>
		<g>
			<path class="st3" d="M390,161c0.3-0.5,6.3-12.9,13.1-19.3c0.4-0.4,0.6-0.8,0.6-1.4c0-0.5-0.2-1-0.5-1.4c-0.4-0.4-0.9-0.6-1.4-0.6
				c-0.5,0-1,0.2-1.3,0.5c-5.2,4.9-9.9,12.7-12.2,17l-0.6,1.1l-0.9-0.9l-8.2-7.9c-0.4-0.4-0.9-0.6-1.4-0.6c-0.5,0-1,0.2-1.4,0.6
				c-0.4,0.4-0.6,0.9-0.6,1.4c0,0.5,0.2,1,0.6,1.4l11,10.7c0.4,0.4,0.9,0.6,1.4,0.6c0.1,0,0.2,0,0.3,0
				C389.2,162,389.7,161.6,390,161z"/>
		</g>
	</g>
	<g>
		<circle class="st4" cx="330" cy="150" r="30"/>
		<path class="st3" d="M345.7,144.9l-10.3-8c-0.2-0.2-0.4-0.2-0.7-0.2c-0.2,0-0.4,0.2-0.6,0.4c-1.1,1.7-2.4,2.6-4.1,2.6
			c-1.7,0-3.1-0.9-4.2-2.6c-0.1-0.2-0.4-0.4-0.6-0.4c-0.2,0-0.5,0-0.7,0.2l-10.3,8c-0.2,0.2-0.3,0.4-0.4,0.7c0,0.3,0.1,0.6,0.2,0.8
			l2.4,3.3c0.3,0.4,0.8,0.4,1.2,0.1l4.2-3.3v15.2c0,0.5,0.4,1.2,0.9,1.2h7.1h7c0.5,0,0.9-0.7,0.9-1.2v-15.2l4.2,3.3
			c0.4,0.3,0.9,0.2,1.2-0.1l2.4-3.3c0.2-0.2,0.3-0.5,0.2-0.8C346,145.4,345.9,145.1,345.7,144.9z"/>
	</g>
	<g>
		<circle class="st4" cx="450" cy="90" r="30"/>
		<path class="st3" d="M456.7,79.5c-5.5,0-6.7,5.2-6.7,5.2c0,0-1.3-5.2-6.8-5.2c-4.5,0-5.8,4.3-5.8,6.9c0,3.3,2.2,6.2,5.2,9.5
			c3.4,3.8,6.3,6.6,7.3,6.6c1,0,3.8-2.8,7.3-6.6c3-3.3,5.2-6.2,5.2-9.5C462.5,83.8,461.3,79.5,456.7,79.5z"/>
	</g>
	<g>
		<circle class="st4" cx="450" cy="150" r="30"/>
		<g>
			<g>
				<g>
					<path class="st3" d="M438,143h15.6v-3H438c-0.8,0-1.5,0.7-1.5,1.5C436.5,142.3,437.2,143,438,143z"/>
				</g>
				<g>
					<path class="st3" d="M438,151.5l15.6,0v-3H438c-0.8,0-1.5,0.7-1.5,1.5C436.5,150.8,437.2,151.5,438,151.5z"/>
				</g>
				<g>
					<path class="st3" d="M437.8,157c-0.8,0-1.5,0.7-1.5,1.5c0,0.8,0.7,1.5,1.5,1.5h8.3c0.3-1.6,1.3-3,1.3-3H446H437.8z"/>
				</g>
				<g>
					<path class="st3" d="M465.3,139.2c-0.9,0.1-6.9,0.9-6.9,0.9c-0.5,0-0.8,0.4-0.8,0.9v6.3v9.6c-0.5,0-1.3,0-2,0
						c-0.3,0-0.6,0-0.9,0.1c-2.9,0.4-5.1,2.5-4.8,4.7c0.3,2.2,2.9,3.7,5.8,3.3c2.8-0.4,4.9-2.4,4.8-4.5c0,0,0,0,0-0.1l0,0v-13.6
						c0,0,3.9-0.6,4.6-0.7c0.7-0.1,1-0.6,1-1.2c0-0.9,0-4.6,0-5C466.2,139.5,466.1,139.1,465.3,139.2z"/>
				</g>
			</g>
		</g>
	</g>
	<g>
		<circle class="st4" cx="150" cy="210" r="30"/>
		<g>
			<circle class="st3" cx="150" cy="210" r="2"/>
			<path class="st3" d="M150,194.5c-8.6,0-15.5,6.9-15.5,15.5c0,8.6,6.9,15.5,15.5,15.5s15.5-6.9,15.5-15.5
				C165.5,201.4,158.6,194.5,150,194.5z M150,217c-3.9,0-7-3.1-7-7c0-1.2,0.3-2.3,0.8-3.3l-3.1-3.1c-0.8-0.8-0.8-2,0-2.8
				c0.8-0.8,2-0.8,2.8,0l3.1,3.1c1-0.5,2.1-0.8,3.3-0.8c3.9,0,7,3.1,7,7S153.9,217,150,217z"/>
		</g>
	</g>
	<g>
		<g>
			<circle class="st4" cx="210" cy="210" r="30"/>
		</g>
		<g>
			<path class="st3" d="M221.2,197c-0.8,0.1-4.1,0.6-4.1,0.6c-0.8,0.1-13,1.8-13,1.8c-0.4,0-0.8,0.4-0.8,0.9v6v9.1
				c-0.5,0-1.3,0-1.9,0c-0.3,0-0.5,0-0.8,0.1c-2.8,0.4-4.8,2.4-4.5,4.5c0.3,2.1,2.7,3.5,5.5,3.2c2.7-0.3,4.7-2.2,4.6-4.3
				c0,0,0,0,0-0.1l0,0v-12.9c0,0,9.8-1.4,13-1.8v9.2c-0.5,0-1.3,0-1.9,0c-0.3,0-0.5,0-0.8,0.1c-2.8,0.4-4.8,2.4-4.5,4.5
				c0.3,2.1,2.7,3.5,5.5,3.2c2.7-0.3,4.7-2.2,4.6-4.3c0,0,0,0,0-0.1l0,0v-12.9l0-1.1c0-0.9,0-4.4,0-4.7
				C222,197.2,221.9,196.9,221.2,197z"/>
		</g>
	</g>
	<g>
		<g>
			<circle class="st4" cx="270" cy="210" r="30"/>
		</g>
		<g>
			<path class="st3" d="M262.1,224.6c-0.8,0.3-2.1-0.2-2.1-1.3c0-1.1,0-6.8,0-6.8l5.8,4.3C265.8,220.8,262.9,224.3,262.1,224.6z
				 M276.6,204l-16.6,8.3l-5.7-4.2c-0.4-0.3-0.6-0.8-0.5-1.3c0.1-0.5,0.6-0.9,1.1-1l30.2-7.3c0.5-0.1,0.9-0.2,1.1-0.1
				c0.3,0.2,0,0.8-0.1,1l-9.6,22.7c-0.2,0.4-0.6,0.7-1.1,0.8c-0.1,0-0.3,0-0.4,0c-0.4,0-0.7-0.1-1-0.3l-9.6-7.1l13-10.6
				c0.4-0.4,0.3-0.8,0.2-0.9C277.4,203.9,277.1,203.8,276.6,204z"/>
		</g>
	</g>
	<g>
		<circle class="st4" cx="330" cy="210" r="30"/>
		<g>
			<g>
				<g>
					<path class="st3" d="M338.6,208.1c0-4.2,3.4-6.2,3.6-6.3c-2-2.9-5-3.3-6.1-3.3c-2.6-0.3-5.1,1.5-6.4,1.5
						c-1.3,0-3.4-1.5-5.5-1.5c-2.8,0-5.4,1.7-6.8,4.2c-3,5.1-0.8,12.6,2.1,16.7c1.4,2,3.1,4.3,5.2,4.2c2.1-0.1,2.9-1.3,5.5-1.3
						c2.5,0,3.3,1.3,5.5,1.3c2.3,0,3.7-2,5.1-4.1c1.6-2.3,2.3-4.6,2.3-4.7C343,214.8,338.7,213.2,338.6,208.1z"/>
					<path class="st3" d="M334.5,195.8c1.1-1.4,1.9-3.4,1.7-5.3c-1.7,0.1-3.7,1.1-4.9,2.5c-1.1,1.2-2,3.2-1.7,5.1
						C331.4,198.3,333.3,197.2,334.5,195.8z"/>
				</g>
			</g>
		</g>
	</g>
	<g>
		
			<ellipse transform="matrix(1.363712e-02 -0.9999 0.9999 1.363712e-02 174.7015 597.1003)" class="st3" cx="390" cy="210" rx="6" ry="6"/>
		<path class="st3" d="M398.9,192.8l-17.3-0.2c-5.4-0.1-8.7,3.2-8.8,8.6l-0.2,17.3c-0.1,5.4,3.2,8.7,8.6,8.8l17.3,0.2
			c5.4,0.1,8.7-3.2,8.8-8.6l0.2-17.3C407.5,196.2,404.3,192.9,398.9,192.8z M389.9,220.3c-5.7-0.1-10.2-4.8-10.1-10.4
			c0.1-5.7,4.8-10.2,10.4-10.1c5.7,0.1,10.2,4.8,10.2,10.4C400.2,215.8,395.5,220.4,389.9,220.3z M400.9,202c-1.5,0-2.7-1.2-2.7-2.7
			c0-1.5,1.2-2.7,2.7-2.7c1.5,0,2.7,1.2,2.7,2.7C403.7,200.8,402.4,202,400.9,202z"/>
	</g>
</g>
</svg>
