<svg id="png" xmlns="http://www.w3.org/2000/svg" viewBox="0 0 78 78"><defs><style>.cls-1{fill:#fff;}</style></defs><title>home-bt-mixlist</title><path class="cls-1" d="M23.44,29.9h20.3V26H23.44A1.95,1.95,0,1,0,23.44,29.9Z"/><path class="cls-1" d="M23.44,40.95h20.3V37H23.44A1.95,1.95,0,0,0,23.44,40.95Z"/><path class="cls-1" d="M23.2,48.1a1.95,1.95,0,0,0,0,3.9H33.93a11.86,11.86,0,0,1,1.65-3.9H23.2Z"/><path class="cls-1" d="M58.91,25L50,26.19a1.12,1.12,0,0,0-1,1.18V48H46.39a9.35,9.35,0,0,0-1.13.08c-3.8.49-6.58,3.22-6.21,6.11s3.75,4.84,7.55,4.35S53,55.5,52.83,52.71v-0.1h0V35s5-.72,5.95-0.88a1.42,1.42,0,0,0,1.27-1.59V26.1C60.05,25.31,59.89,24.84,58.91,25Z"/></svg>