<svg id="Calque_1" data-name="Calque 1" xmlns="http://www.w3.org/2000/svg" viewBox="0 0 96 15"><defs><style>.cls-1{fill:none;}.cls-2{fill:#5a5a5a;}.cls-3{fill:#aaa;}</style></defs><title>mixlist-stat</title><rect class="cls-1" width="24" height="15"/><path class="cls-2" d="M22.91,7.14C20.36,2.67,16.28,0,12,0S3.64,2.67,1.09,7.14a.74.74,0,0,0,0,.71C3.64,12.33,7.72,15,12,15s8.36-2.67,10.91-7.14A.72.72,0,0,0,22.91,7.14ZM12,10.5a3,3,0,1,1,3-3A3,3,0,0,1,12,10.5Z"/><rect class="cls-1" x="48" width="24" height="15"/><path class="cls-3" d="M68.5,8h0c0-.17,0-.33,0-.5A7.5,7.5,0,0,0,54.34,4.07,5.5,5.5,0,1,0,53.5,15h15a3.5,3.5,0,0,0,0-7Zm-4.72,2.22a.75.75,0,1,1-1.06,1.06L61,9.56l-1.72,1.72a.75.75,0,0,1-1.06-1.06L59.94,8.5,58.22,6.78a.75.75,0,0,1,1.06-1.06L61,7.44l1.72-1.72a.75.75,0,1,1,1.06,1.06L62.06,8.5Z"/><rect class="cls-1" x="24" width="24" height="15"/><path class="cls-2" d="M40.59,0A4.65,4.65,0,0,0,36,3.41,4.67,4.67,0,0,0,31.42,0C28.34,0,27.5,2.77,27.5,4.48c0,2.17,1.52,4,3.56,6.21C33.39,13.19,35.35,15,36,15s2.61-1.81,4.94-4.31c2-2.18,3.55-4,3.55-6.21C44.5,2.77,43.67,0,40.59,0Z"/><path class="cls-2" d="M92.25,0h0L80.17,1.33h-.06a.8.8,0,0,0-.68.83V9.87a4.78,4.78,0,0,0-1.2,0c-1.9.23-3.32,1.51-3.23,2.92S76.57,15,78.32,15a4.89,4.89,0,0,0,.59,0c1.88-.23,3.29-1.49,3.23-2.87V5.15l8.14-.83V8.87a4.88,4.88,0,0,0-.63,0,4.67,4.67,0,0,0-.57,0c-1.9.23-3.32,1.51-3.23,2.92S87.42,14,89.17,14a4.92,4.92,0,0,0,.6,0c1.76-.21,3.11-1.33,3.21-2.63V.84A.8.8,0,0,0,92.25,0Z"/><rect class="cls-1" x="72" width="24" height="15"/></svg>