<svg id="Calque_1" data-name="Calque 1" xmlns="http://www.w3.org/2000/svg" viewBox="0 0 120 40"><defs><style>.cls-1{fill:none;}.cls-2{fill:#8c8c8c;}</style></defs><title>popup-form-icon</title><rect class="cls-1" width="40" height="40"/><circle class="cls-2" cx="20" cy="12.9" r="6.4"/><path class="cls-2" d="M25.4,22.5H14.6c-3.45,0-5.6,2.85-5.6,6.29V32.6a.91.91,0,0,0,.91.9H30.09a.91.91,0,0,0,.91-.9V28.79C31,25.35,28.85,22.5,25.4,22.5Z"/><rect class="cls-1" x="40" width="40" height="40"/><path class="cls-2" d="M71.19,8,54,10.31a.75.75,0,0,0-.7.79V23.91a4.12,4.12,0,1,0,3,4.15h0v-11L69,15.36V22a4.12,4.12,0,1,0,3,4V8.7A.76.76,0,0,0,71.19,8Z"/><rect class="cls-1" x="80" width="40" height="40"/><path class="cls-2" d="M105.94,10.29A6,6,0,0,0,100,14.71a6,6,0,0,0-5.94-4.41c-4,0-5.07,3.59-5.07,5.8,0,2.81,2,5.21,4.61,8,3,3.23,5.56,5.57,6.4,5.57s3.38-2.35,6.39-5.57c2.64-2.83,4.6-5.23,4.6-8C111,13.88,109.92,10.29,105.94,10.29Z"/></svg>