<svg id="png" xmlns="http://www.w3.org/2000/svg" viewBox="0 0 132 44"><defs><style>.cls-1{fill:none;}.cls-2{fill:#fff;}</style></defs><title>popup-icon</title><path class="cls-1" d="M22,0A22,22,0,1,0,44,22,22,22,0,0,0,22,0Z"/><path class="cls-2" d="M22,20a2,2,0,0,0-2,2v9a2,2,0,0,0,4,0V22A2,2,0,0,0,22,20Z"/><circle class="cls-2" cx="22" cy="13.5" r="3"/><path class="cls-1" d="M110,0a22,22,0,1,0,22,22A22,22,0,0,0,110,0Z"/><path class="cls-2" d="M108.75,31a2,2,0,0,1-1.39-.56L99.78,23.1a2,2,0,0,1,2.78-2.87l5.66,5.47c1.69-3.1,4.9-8.46,8.51-11.83a2,2,0,0,1,2.73,2.92c-4.66,4.35-8.85,13-8.9,13.07A2,2,0,0,1,109.1,31,2.12,2.12,0,0,1,108.75,31Z"/><path class="cls-1" d="M66,0A22,22,0,1,0,88,22,22,22,0,0,0,66,0Z"/><path class="cls-2" d="M63.88,22l-5.65,5.65a1.5,1.5,0,0,0,2.12,2.12L66,24.12l5.65,5.65a1.5,1.5,0,1,0,2.12-2.12L68.12,22l5.65-5.65a1.5,1.5,0,0,0-2.12-2.12L66,19.88l-5.65-5.65a1.5,1.5,0,1,0-2.12,2.12Z"/></svg>